<?xml version="1.0" encoding="utf-8"?>
<!-- Generator: Adobe Illustrator 24.2.1, SVG Export Plug-In . SVG Version: 6.00 Build 0)  -->
<svg version="1.1" xmlns="http://www.w3.org/2000/svg" xmlns:xlink="http://www.w3.org/1999/xlink" x="0px" y="0px"
	 viewBox="0 0 1113.18 590.12" enable-background="new 0 0 1113.18 590.12" xml:space="preserve">
<g id="testing">
	<g id="0001">
		
			<line fill="none" stroke="#0AC400" stroke-width="0.4" stroke-linecap="round" stroke-linejoin="round" stroke-miterlimit="10" x1="815.52" y1="554.44" x2="813.56" y2="552.47"/>
		
			<polyline fill="none" stroke="#0AC400" stroke-width="0.4" stroke-linecap="round" stroke-linejoin="round" stroke-miterlimit="10" points="
			813.55,549.8 812.99,550.64 812.99,551.63 813.55,552.47 		"/>
		
			<line fill="none" stroke="#0AC400" stroke-width="0.4" stroke-linecap="round" stroke-linejoin="round" stroke-miterlimit="10" x1="813.55" y1="549.8" x2="818.75" y2="544.46"/>
		
			<polyline fill="none" stroke="#0AC400" stroke-width="0.4" stroke-linecap="round" stroke-linejoin="round" stroke-miterlimit="10" points="
			821.42,544.46 820.58,544.04 819.6,544.04 818.75,544.46 		"/>
		
			<line fill="none" stroke="#0AC400" stroke-width="0.4" stroke-linecap="round" stroke-linejoin="round" stroke-miterlimit="10" x1="821.42" y1="544.46" x2="822.83" y2="545.87"/>
		
			<polyline fill="none" stroke="#0AC400" stroke-width="0.4" stroke-linecap="round" stroke-linejoin="round" stroke-miterlimit="10" points="
			821.98,550.36 821.84,551.21 821.14,552.19 820.3,552.75 819.74,553.59 818.89,553.59 817.77,552.61 816.93,550.93 817.35,549.66 
			818.33,548.82 819.45,548.4 821,548.82 822.4,550.78 821.98,552.19 822.12,552.89 821.98,553.03 821.28,552.75 820.02,553.45 		
			"/>
		
			<polygon fill="none" stroke="#0AC400" stroke-width="0.4" stroke-linecap="round" stroke-linejoin="round" stroke-miterlimit="10" points="
			824.79,550.36 822.97,552.89 820.58,554.72 819.03,555.28 820.86,556.68 823.81,557.11 823.81,557.53 825.5,557.53 827.18,558.09 
			827.04,558.37 826.06,558.23 826.62,558.65 827.74,558.93 827.32,559.49 825.78,559.92 824.65,559.49 823.53,558.51 
			823.25,559.35 820.72,559.07 818.61,558.37 815.94,556.26 815.24,553.17 815.94,549.94 817.91,547.27 820.58,545.73 
			824.09,546.01 825.35,546.57 827.32,548.96 828.59,551.07 829.15,551.77 829.57,553.31 830.27,553.59 830.55,555.14 
			829.71,555.98 829.29,555.84 829.15,554.86 828.73,554.58 828.73,555.42 828.45,555.42 828.16,554.44 828.3,553.31 827.74,552.61 
			827.6,552.75 827.18,552.19 827.04,552.33 		"/>
		
			<line fill="none" stroke="#0AC400" stroke-width="0.4" stroke-linecap="round" stroke-linejoin="round" stroke-miterlimit="10" x1="819.03" y1="542.64" x2="819.31" y2="543.2"/>
		
			<line fill="none" stroke="#0AC400" stroke-width="0.4" stroke-linecap="round" stroke-linejoin="round" stroke-miterlimit="10" x1="815.52" y1="545.59" x2="816.65" y2="546.71"/>
		
			<line fill="none" stroke="#0AC400" stroke-width="0.4" stroke-linecap="round" stroke-linejoin="round" stroke-miterlimit="10" x1="824.79" y1="550.36" x2="824.37" y2="548.82"/>
		
			<line fill="none" stroke="#0AC400" stroke-width="0.4" stroke-linecap="round" stroke-linejoin="round" stroke-miterlimit="10" x1="827.74" y1="552.61" x2="829.15" y2="551.77"/>
		
			<line fill="none" stroke="#0AC400" stroke-width="0.4" stroke-linecap="round" stroke-linejoin="round" stroke-miterlimit="10" x1="827.18" y1="552.33" x2="828.59" y2="551.21"/>
		
			<line fill="none" stroke="#0AC400" stroke-width="0.4" stroke-linecap="round" stroke-linejoin="round" stroke-miterlimit="10" x1="811.59" y1="550.08" x2="812.15" y2="550.22"/>
		
			<line fill="none" stroke="#0AC400" stroke-width="0.4" stroke-linecap="round" stroke-linejoin="round" stroke-miterlimit="10" x1="814.54" y1="546.43" x2="815.66" y2="547.55"/>
		
			<polyline fill="none" stroke="#0AC400" stroke-width="0.4" stroke-linecap="round" stroke-linejoin="round" stroke-miterlimit="10" points="
			819.31,543.2 817.07,544.46 815.1,546.01 813.41,547.98 812.15,550.22 		"/>
		
			<polyline fill="none" stroke="#0AC400" stroke-width="0.4" stroke-linecap="round" stroke-linejoin="round" stroke-miterlimit="10" points="
			819.03,542.64 816.65,543.9 814.54,545.59 812.85,547.69 811.59,550.08 		"/>
	</g>
	<g id="0002">
		
			<line fill="none" stroke="#0AC400" stroke-width="0.4" stroke-linecap="round" stroke-linejoin="round" stroke-miterlimit="10" x1="581.21" y1="554.44" x2="583.18" y2="552.47"/>
		
			<polyline fill="none" stroke="#0AC400" stroke-width="0.4" stroke-linecap="round" stroke-linejoin="round" stroke-miterlimit="10" points="
			583.18,549.8 583.74,550.64 583.74,551.63 583.18,552.47 		"/>
		
			<line fill="none" stroke="#0AC400" stroke-width="0.4" stroke-linecap="round" stroke-linejoin="round" stroke-miterlimit="10" x1="583.18" y1="549.8" x2="577.98" y2="544.46"/>
		
			<polyline fill="none" stroke="#0AC400" stroke-width="0.4" stroke-linecap="round" stroke-linejoin="round" stroke-miterlimit="10" points="
			575.31,544.46 576.15,544.04 577.14,544.04 577.98,544.46 		"/>
		
			<line fill="none" stroke="#0AC400" stroke-width="0.4" stroke-linecap="round" stroke-linejoin="round" stroke-miterlimit="10" x1="575.31" y1="544.46" x2="573.91" y2="545.87"/>
		
			<polyline fill="none" stroke="#0AC400" stroke-width="0.4" stroke-linecap="round" stroke-linejoin="round" stroke-miterlimit="10" points="
			574.61,550.36 574.89,551.21 575.59,552.19 576.43,552.75 576.86,553.59 577.84,553.59 578.96,552.61 579.67,550.93 
			579.38,549.66 578.4,548.82 577.28,548.4 575.73,548.82 574.33,550.78 574.75,552.19 574.47,552.89 574.75,553.03 575.45,552.75 
			576.72,553.45 		"/>
		
			<polygon fill="none" stroke="#0AC400" stroke-width="0.4" stroke-linecap="round" stroke-linejoin="round" stroke-miterlimit="10" points="
			571.94,550.36 573.77,552.89 576.15,554.72 577.7,555.28 575.87,556.68 572.92,557.11 572.92,557.53 571.24,557.53 569.55,558.09 
			569.69,558.37 570.67,558.23 570.11,558.65 568.99,558.93 569.41,559.49 570.96,559.92 572.08,559.49 573.2,558.51 573.48,559.35 
			576.01,559.07 578.12,558.37 580.79,556.26 581.49,553.17 580.79,549.94 578.82,547.27 576.01,545.73 572.64,546.01 
			571.38,546.57 569.41,548.96 568.01,551.07 567.58,551.77 567.16,553.31 566.46,553.59 566.04,555.14 567.02,555.98 
			567.44,555.84 567.58,554.86 568.01,554.58 567.87,555.42 568.15,555.42 568.57,554.44 568.43,553.31 568.85,552.61 
			569.13,552.75 569.55,552.19 569.69,552.33 		"/>
		
			<line fill="none" stroke="#0AC400" stroke-width="0.4" stroke-linecap="round" stroke-linejoin="round" stroke-miterlimit="10" x1="577.7" y1="542.64" x2="577.42" y2="543.2"/>
		
			<line fill="none" stroke="#0AC400" stroke-width="0.4" stroke-linecap="round" stroke-linejoin="round" stroke-miterlimit="10" x1="581.21" y1="545.59" x2="580.09" y2="546.71"/>
		
			<line fill="none" stroke="#0AC400" stroke-width="0.4" stroke-linecap="round" stroke-linejoin="round" stroke-miterlimit="10" x1="571.94" y1="550.36" x2="572.36" y2="548.82"/>
		
			<line fill="none" stroke="#0AC400" stroke-width="0.4" stroke-linecap="round" stroke-linejoin="round" stroke-miterlimit="10" x1="568.85" y1="552.61" x2="567.58" y2="551.77"/>
		
			<line fill="none" stroke="#0AC400" stroke-width="0.4" stroke-linecap="round" stroke-linejoin="round" stroke-miterlimit="10" x1="569.55" y1="552.33" x2="568.15" y2="551.21"/>
		
			<line fill="none" stroke="#0AC400" stroke-width="0.4" stroke-linecap="round" stroke-linejoin="round" stroke-miterlimit="10" x1="585.14" y1="550.08" x2="584.44" y2="550.22"/>
		
			<line fill="none" stroke="#0AC400" stroke-width="0.4" stroke-linecap="round" stroke-linejoin="round" stroke-miterlimit="10" x1="582.05" y1="546.43" x2="581.07" y2="547.55"/>
		
			<line fill="none" stroke="#0AC400" stroke-width="0.4" stroke-linecap="round" stroke-linejoin="round" stroke-miterlimit="10" x1="577.7" y1="555.28" x2="578.12" y2="554.44"/>
		
			<polyline fill="none" stroke="#0AC400" stroke-width="0.4" stroke-linecap="round" stroke-linejoin="round" stroke-miterlimit="10" points="
			577.42,543.2 579.67,544.46 581.63,546.01 583.32,547.98 584.44,550.22 		"/>
		
			<polyline fill="none" stroke="#0AC400" stroke-width="0.4" stroke-linecap="round" stroke-linejoin="round" stroke-miterlimit="10" points="
			577.7,542.64 580.09,543.9 582.05,545.59 583.74,547.69 585.14,550.08 		"/>
	</g>
	<g id="0003">
		
			<line fill="none" stroke="#0AC400" stroke-width="0.4" stroke-linecap="round" stroke-linejoin="round" stroke-miterlimit="10" x1="759.33" y1="421.27" x2="762.14" y2="421.27"/>
		
			<polyline fill="none" stroke="#0AC400" stroke-width="0.4" stroke-linecap="round" stroke-linejoin="round" stroke-miterlimit="10" points="
			763.97,419.44 763.69,420.42 763.12,420.99 762.14,421.27 		"/>
		
			<line fill="none" stroke="#0AC400" stroke-width="0.4" stroke-linecap="round" stroke-linejoin="round" stroke-miterlimit="10" x1="763.97" y1="419.44" x2="763.97" y2="412"/>
		
			<polyline fill="none" stroke="#0AC400" stroke-width="0.4" stroke-linecap="round" stroke-linejoin="round" stroke-miterlimit="10" points="
			762.14,410.03 762.98,410.31 763.69,411.01 763.97,412 		"/>
		
			<line fill="none" stroke="#0AC400" stroke-width="0.4" stroke-linecap="round" stroke-linejoin="round" stroke-miterlimit="10" x1="762.14" y1="410.03" x2="760.17" y2="410.03"/>
		
			<polyline fill="none" stroke="#0AC400" stroke-width="0.4" stroke-linecap="round" stroke-linejoin="round" stroke-miterlimit="10" points="
			757.51,413.82 757.08,414.52 756.94,415.65 757.08,416.63 756.8,417.62 757.51,418.32 758.91,418.46 760.74,417.76 761.3,416.63 
			761.3,415.37 760.74,414.24 759.33,413.4 756.94,413.82 756.38,415.23 755.68,415.51 755.68,415.79 756.38,416.07 756.8,417.33 		
			"/>
		
			<polygon fill="none" stroke="#0AC400" stroke-width="0.4" stroke-linecap="round" stroke-linejoin="round" stroke-miterlimit="10" points="
			755.54,411.86 755.12,414.95 755.54,417.9 756.24,419.44 753.85,419.16 751.47,417.33 751.18,417.62 750.06,416.49 748.37,415.65 
			748.37,415.93 749.08,416.63 748.52,416.49 747.53,415.93 747.39,416.63 748.23,417.9 749.22,418.46 750.76,418.6 750.34,419.3 
			752.31,420.99 754.27,421.83 757.79,422.39 760.46,420.71 762.28,417.76 762.7,414.52 761.86,411.57 759.19,409.19 757.93,408.77 
			754.7,409.05 752.31,409.61 751.61,409.75 750.2,410.59 749.36,410.31 748.09,411.15 748.23,412.42 748.52,412.56 749.36,412 
			749.78,412.14 749.22,412.56 749.36,412.84 750.34,412.42 751.04,411.43 751.89,411.29 751.89,411.57 752.59,411.57 
			752.59,411.72 		"/>
		
			<line fill="none" stroke="#0AC400" stroke-width="0.4" stroke-linecap="round" stroke-linejoin="round" stroke-miterlimit="10" x1="765.23" y1="410.45" x2="764.67" y2="410.73"/>
		
			<line fill="none" stroke="#0AC400" stroke-width="0.4" stroke-linecap="round" stroke-linejoin="round" stroke-miterlimit="10" x1="765.51" y1="415.09" x2="763.97" y2="415.09"/>
		
			<line fill="none" stroke="#0AC400" stroke-width="0.4" stroke-linecap="round" stroke-linejoin="round" stroke-miterlimit="10" x1="755.68" y1="411.86" x2="757.08" y2="411.15"/>
		
			<line fill="none" stroke="#0AC400" stroke-width="0.4" stroke-linecap="round" stroke-linejoin="round" stroke-miterlimit="10" x1="751.89" y1="411.29" x2="751.47" y2="409.75"/>
		
			<line fill="none" stroke="#0AC400" stroke-width="0.4" stroke-linecap="round" stroke-linejoin="round" stroke-miterlimit="10" x1="752.59" y1="411.57" x2="752.31" y2="409.75"/>
		
			<line fill="none" stroke="#0AC400" stroke-width="0.4" stroke-linecap="round" stroke-linejoin="round" stroke-miterlimit="10" x1="765.23" y1="420.85" x2="764.53" y2="420.71"/>
		
			<line fill="none" stroke="#0AC400" stroke-width="0.4" stroke-linecap="round" stroke-linejoin="round" stroke-miterlimit="10" x1="765.51" y1="416.35" x2="763.97" y2="416.35"/>
		
			<line fill="none" stroke="#0AC400" stroke-width="0.4" stroke-linecap="round" stroke-linejoin="round" stroke-miterlimit="10" x1="756.24" y1="419.44" x2="757.08" y2="419.16"/>
		
			<polyline fill="none" stroke="#0AC400" stroke-width="0.4" stroke-linecap="round" stroke-linejoin="round" stroke-miterlimit="10" points="
			764.67,410.73 765.37,413.12 765.51,415.65 765.37,418.18 764.53,420.71 		"/>
		
			<polyline fill="none" stroke="#0AC400" stroke-width="0.4" stroke-linecap="round" stroke-linejoin="round" stroke-miterlimit="10" points="
			765.23,410.45 765.93,412.98 766.21,415.65 765.93,418.32 765.23,420.85 		"/>
	</g>
	<g id="0004">
		
			<line fill="none" stroke="#0AC400" stroke-width="0.4" stroke-linecap="round" stroke-linejoin="round" stroke-miterlimit="10" x1="567.16" y1="361.43" x2="564.35" y2="361.43"/>
		
			<polyline fill="none" stroke="#0AC400" stroke-width="0.4" stroke-linecap="round" stroke-linejoin="round" stroke-miterlimit="10" points="
			562.53,359.6 562.81,360.44 563.51,361.14 564.35,361.43 		"/>
		
			<line fill="none" stroke="#0AC400" stroke-width="0.4" stroke-linecap="round" stroke-linejoin="round" stroke-miterlimit="10" x1="562.53" y1="359.6" x2="562.53" y2="352.01"/>
		
			<polyline fill="none" stroke="#0AC400" stroke-width="0.4" stroke-linecap="round" stroke-linejoin="round" stroke-miterlimit="10" points="
			564.35,350.19 563.51,350.47 562.81,351.17 562.53,352.01 		"/>
		
			<line fill="none" stroke="#0AC400" stroke-width="0.4" stroke-linecap="round" stroke-linejoin="round" stroke-miterlimit="10" x1="564.35" y1="350.19" x2="566.32" y2="350.19"/>
		
			<polyline fill="none" stroke="#0AC400" stroke-width="0.4" stroke-linecap="round" stroke-linejoin="round" stroke-miterlimit="10" points="
			568.99,353.98 569.41,354.68 569.55,355.81 569.41,356.79 569.69,357.77 568.99,358.34 567.58,358.48 565.76,357.91 565.2,356.65 
			565.2,355.39 565.76,354.4 567.16,353.56 569.55,353.98 570.25,355.39 570.82,355.67 570.82,355.95 570.11,356.09 569.69,357.49 
					"/>
		
			<polygon fill="none" stroke="#0AC400" stroke-width="0.4" stroke-linecap="round" stroke-linejoin="round" stroke-miterlimit="10" points="
			570.96,352.01 571.38,355.1 571.1,358.05 570.25,359.6 572.64,359.32 575.03,357.49 575.31,357.77 576.43,356.51 578.12,355.81 
			578.26,356.09 577.42,356.79 577.98,356.65 579.1,355.95 579.1,356.65 578.26,358.05 577.28,358.62 575.73,358.76 576.15,359.46 
			574.19,361.14 572.22,361.99 568.71,362.41 566.04,360.72 564.35,357.91 563.79,354.54 564.63,351.59 567.3,349.34 568.71,348.92 
			571.8,349.2 574.19,349.77 574.89,349.91 576.29,350.61 577.14,350.47 578.4,351.17 578.26,352.44 577.98,352.72 577.14,352.01 
			576.72,352.15 577.28,352.72 577.14,353 576.15,352.58 575.45,351.59 574.61,351.45 574.61,351.73 573.91,351.59 573.91,351.87 		
			"/>
		
			<line fill="none" stroke="#0AC400" stroke-width="0.4" stroke-linecap="round" stroke-linejoin="round" stroke-miterlimit="10" x1="561.26" y1="350.61" x2="561.97" y2="350.75"/>
		
			<line fill="none" stroke="#0AC400" stroke-width="0.4" stroke-linecap="round" stroke-linejoin="round" stroke-miterlimit="10" x1="560.98" y1="355.1" x2="562.53" y2="355.1"/>
		
			<line fill="none" stroke="#0AC400" stroke-width="0.4" stroke-linecap="round" stroke-linejoin="round" stroke-miterlimit="10" x1="570.96" y1="352.01" x2="569.55" y2="351.17"/>
		
			<line fill="none" stroke="#0AC400" stroke-width="0.4" stroke-linecap="round" stroke-linejoin="round" stroke-miterlimit="10" x1="574.61" y1="351.45" x2="575.03" y2="349.91"/>
		
			<line fill="none" stroke="#0AC400" stroke-width="0.4" stroke-linecap="round" stroke-linejoin="round" stroke-miterlimit="10" x1="573.91" y1="351.73" x2="574.19" y2="349.77"/>
		
			<line fill="none" stroke="#0AC400" stroke-width="0.4" stroke-linecap="round" stroke-linejoin="round" stroke-miterlimit="10" x1="561.4" y1="361" x2="561.97" y2="360.72"/>
		
			<line fill="none" stroke="#0AC400" stroke-width="0.4" stroke-linecap="round" stroke-linejoin="round" stroke-miterlimit="10" x1="560.98" y1="356.37" x2="562.53" y2="356.37"/>
		
			<line fill="none" stroke="#0AC400" stroke-width="0.4" stroke-linecap="round" stroke-linejoin="round" stroke-miterlimit="10" x1="570.25" y1="359.6" x2="569.41" y2="359.32"/>
		
			<polyline fill="none" stroke="#0AC400" stroke-width="0.4" stroke-linecap="round" stroke-linejoin="round" stroke-miterlimit="10" points="
			561.97,350.75 561.26,353.28 560.98,355.81 561.26,358.34 561.97,360.72 		"/>
		
			<polyline fill="none" stroke="#0AC400" stroke-width="0.4" stroke-linecap="round" stroke-linejoin="round" stroke-miterlimit="10" points="
			561.26,350.61 560.56,353.14 560.28,355.81 560.56,358.48 561.4,361 		"/>
	</g>
	<g id="0005">
		
			<line fill="none" stroke="#0AC400" stroke-width="0.4" stroke-linecap="round" stroke-linejoin="round" stroke-miterlimit="10" x1="567.16" y1="378.98" x2="564.35" y2="378.98"/>
		
			<polyline fill="none" stroke="#0AC400" stroke-width="0.4" stroke-linecap="round" stroke-linejoin="round" stroke-miterlimit="10" points="
			562.53,380.95 562.81,379.97 563.51,379.27 564.35,378.98 		"/>
		
			<line fill="none" stroke="#0AC400" stroke-width="0.4" stroke-linecap="round" stroke-linejoin="round" stroke-miterlimit="10" x1="562.53" y1="380.95" x2="562.53" y2="388.4"/>
		
			<polyline fill="none" stroke="#0AC400" stroke-width="0.4" stroke-linecap="round" stroke-linejoin="round" stroke-miterlimit="10" points="
			564.35,390.22 563.51,389.94 562.81,389.38 562.53,388.4 		"/>
		
			<line fill="none" stroke="#0AC400" stroke-width="0.4" stroke-linecap="round" stroke-linejoin="round" stroke-miterlimit="10" x1="564.35" y1="390.22" x2="566.32" y2="390.22"/>
		
			<polyline fill="none" stroke="#0AC400" stroke-width="0.4" stroke-linecap="round" stroke-linejoin="round" stroke-miterlimit="10" points="
			568.99,386.57 569.41,385.73 569.55,384.6 569.41,383.62 569.69,382.64 568.99,382.08 567.58,381.93 565.76,382.64 565.2,383.76 
			565.2,385.03 565.76,386.01 567.16,386.85 569.55,386.57 570.25,385.17 570.82,384.74 570.82,384.6 570.11,384.32 569.69,382.92 
					"/>
		
			<polygon fill="none" stroke="#0AC400" stroke-width="0.4" stroke-linecap="round" stroke-linejoin="round" stroke-miterlimit="10" points="
			570.96,388.4 571.38,385.45 571.1,382.36 570.25,380.81 572.64,381.23 575.03,382.92 575.31,382.64 576.43,383.9 578.12,384.6 
			578.26,384.32 577.42,383.76 577.98,383.9 579.1,384.46 579.1,383.76 578.26,382.36 577.28,381.79 575.73,381.79 576.15,380.95 
			574.19,379.27 572.22,378.42 568.71,378 566.04,379.69 564.35,382.5 563.79,385.87 564.63,388.82 567.3,391.07 568.71,391.63 
			571.8,391.21 574.19,390.64 574.89,390.5 576.29,389.8 577.14,389.94 578.4,389.24 578.26,387.98 577.98,387.69 577.14,388.4 
			576.72,388.26 577.28,387.69 577.14,387.41 576.15,387.98 575.45,388.82 574.61,388.96 574.61,388.68 573.91,388.82 
			573.91,388.68 		"/>
		
			<line fill="none" stroke="#0AC400" stroke-width="0.4" stroke-linecap="round" stroke-linejoin="round" stroke-miterlimit="10" x1="561.26" y1="389.94" x2="561.97" y2="389.66"/>
		
			<line fill="none" stroke="#0AC400" stroke-width="0.4" stroke-linecap="round" stroke-linejoin="round" stroke-miterlimit="10" x1="560.98" y1="385.31" x2="562.53" y2="385.31"/>
		
			<line fill="none" stroke="#0AC400" stroke-width="0.4" stroke-linecap="round" stroke-linejoin="round" stroke-miterlimit="10" x1="570.96" y1="388.4" x2="569.55" y2="389.24"/>
		
			<line fill="none" stroke="#0AC400" stroke-width="0.4" stroke-linecap="round" stroke-linejoin="round" stroke-miterlimit="10" x1="574.61" y1="388.96" x2="575.03" y2="390.64"/>
		
			<line fill="none" stroke="#0AC400" stroke-width="0.4" stroke-linecap="round" stroke-linejoin="round" stroke-miterlimit="10" x1="573.91" y1="388.68" x2="574.19" y2="390.64"/>
		
			<line fill="none" stroke="#0AC400" stroke-width="0.4" stroke-linecap="round" stroke-linejoin="round" stroke-miterlimit="10" x1="561.4" y1="379.41" x2="561.97" y2="379.69"/>
		
			<line fill="none" stroke="#0AC400" stroke-width="0.4" stroke-linecap="round" stroke-linejoin="round" stroke-miterlimit="10" x1="560.98" y1="384.04" x2="562.53" y2="384.04"/>
		
			<line fill="none" stroke="#0AC400" stroke-width="0.4" stroke-linecap="round" stroke-linejoin="round" stroke-miterlimit="10" x1="570.25" y1="380.81" x2="569.41" y2="381.09"/>
		
			<polyline fill="none" stroke="#0AC400" stroke-width="0.4" stroke-linecap="round" stroke-linejoin="round" stroke-miterlimit="10" points="
			561.97,389.66 561.26,387.13 560.98,384.6 561.26,382.08 561.97,379.69 		"/>
		
			<polyline fill="none" stroke="#0AC400" stroke-width="0.4" stroke-linecap="round" stroke-linejoin="round" stroke-miterlimit="10" points="
			561.26,389.94 560.56,387.27 560.28,384.6 560.56,381.93 561.4,379.41 		"/>
	</g>
	<g id="0006">
		
			<line fill="none" stroke="#0AC400" stroke-width="0.4" stroke-linecap="round" stroke-linejoin="round" stroke-miterlimit="10" x1="567.16" y1="421.27" x2="564.35" y2="421.27"/>
		
			<polyline fill="none" stroke="#0AC400" stroke-width="0.4" stroke-linecap="round" stroke-linejoin="round" stroke-miterlimit="10" points="
			562.53,419.44 562.81,420.42 563.51,420.99 564.35,421.27 		"/>
		
			<line fill="none" stroke="#0AC400" stroke-width="0.4" stroke-linecap="round" stroke-linejoin="round" stroke-miterlimit="10" x1="562.53" y1="419.44" x2="562.53" y2="412"/>
		
			<polyline fill="none" stroke="#0AC400" stroke-width="0.4" stroke-linecap="round" stroke-linejoin="round" stroke-miterlimit="10" points="
			564.35,410.03 563.51,410.31 562.81,411.01 562.53,412 		"/>
		
			<line fill="none" stroke="#0AC400" stroke-width="0.4" stroke-linecap="round" stroke-linejoin="round" stroke-miterlimit="10" x1="564.35" y1="410.03" x2="566.32" y2="410.03"/>
		
			<polyline fill="none" stroke="#0AC400" stroke-width="0.4" stroke-linecap="round" stroke-linejoin="round" stroke-miterlimit="10" points="
			568.99,413.82 569.41,414.52 569.55,415.65 569.41,416.63 569.69,417.62 568.99,418.32 567.58,418.46 565.76,417.76 565.2,416.63 
			565.2,415.37 565.76,414.24 567.16,413.4 569.55,413.82 570.25,415.23 570.82,415.51 570.82,415.79 570.11,416.07 569.69,417.33 
					"/>
		
			<polygon fill="none" stroke="#0AC400" stroke-width="0.4" stroke-linecap="round" stroke-linejoin="round" stroke-miterlimit="10" points="
			570.96,411.86 571.38,414.95 571.1,417.9 570.25,419.44 572.64,419.16 575.03,417.33 575.31,417.62 576.43,416.49 578.12,415.65 
			578.26,415.93 577.42,416.63 577.98,416.49 579.1,415.93 579.1,416.63 578.26,417.9 577.28,418.46 575.73,418.6 576.15,419.3 
			574.19,420.99 572.22,421.83 568.71,422.39 566.04,420.71 564.35,417.76 563.79,414.52 564.63,411.57 567.3,409.19 568.71,408.77 
			571.8,409.05 574.19,409.61 574.89,409.75 576.29,410.59 577.14,410.31 578.4,411.15 578.26,412.42 577.98,412.56 577.14,412 
			576.72,412.14 577.28,412.56 577.14,412.84 576.15,412.42 575.45,411.43 574.61,411.29 574.61,411.57 573.91,411.57 
			573.91,411.72 		"/>
		
			<line fill="none" stroke="#0AC400" stroke-width="0.4" stroke-linecap="round" stroke-linejoin="round" stroke-miterlimit="10" x1="561.26" y1="410.45" x2="561.97" y2="410.73"/>
		
			<line fill="none" stroke="#0AC400" stroke-width="0.4" stroke-linecap="round" stroke-linejoin="round" stroke-miterlimit="10" x1="560.98" y1="415.09" x2="562.53" y2="415.09"/>
		
			<line fill="none" stroke="#0AC400" stroke-width="0.4" stroke-linecap="round" stroke-linejoin="round" stroke-miterlimit="10" x1="570.96" y1="411.86" x2="569.55" y2="411.15"/>
		
			<line fill="none" stroke="#0AC400" stroke-width="0.4" stroke-linecap="round" stroke-linejoin="round" stroke-miterlimit="10" x1="574.61" y1="411.29" x2="575.03" y2="409.75"/>
		
			<line fill="none" stroke="#0AC400" stroke-width="0.4" stroke-linecap="round" stroke-linejoin="round" stroke-miterlimit="10" x1="573.91" y1="411.57" x2="574.19" y2="409.75"/>
		
			<line fill="none" stroke="#0AC400" stroke-width="0.4" stroke-linecap="round" stroke-linejoin="round" stroke-miterlimit="10" x1="561.4" y1="420.85" x2="561.97" y2="420.71"/>
		
			<line fill="none" stroke="#0AC400" stroke-width="0.4" stroke-linecap="round" stroke-linejoin="round" stroke-miterlimit="10" x1="560.98" y1="416.35" x2="562.53" y2="416.35"/>
		
			<line fill="none" stroke="#0AC400" stroke-width="0.4" stroke-linecap="round" stroke-linejoin="round" stroke-miterlimit="10" x1="570.25" y1="419.44" x2="569.41" y2="419.16"/>
		
			<polyline fill="none" stroke="#0AC400" stroke-width="0.4" stroke-linecap="round" stroke-linejoin="round" stroke-miterlimit="10" points="
			561.97,410.73 561.26,413.12 560.98,415.65 561.26,418.18 561.97,420.71 		"/>
		
			<polyline fill="none" stroke="#0AC400" stroke-width="0.4" stroke-linecap="round" stroke-linejoin="round" stroke-miterlimit="10" points="
			561.26,410.45 560.56,412.98 560.28,415.65 560.56,418.32 561.4,420.85 		"/>
	</g>
</g> 
</svg>
